<?xml version="1.0" encoding="utf-8"?>
<svg xmlns="http://www.w3.org/2000/svg" xmlns:xlink="http://www.w3.org/1999/xlink" style="margin: auto; background: none; display: block; shape-rendering: auto;" width="254px" height="254px" viewBox="0 0 100 100" preserveAspectRatio="xMidYMid">
<g transform="rotate(0 50 50)">
  <rect x="47.5" y="27" rx="2.5" ry="2.5" width="5" height="10" fill="#93dbe9">
    <animate attributeName="opacity" values="1;0" keyTimes="0;1" dur="0.9345794392523364s" begin="-0.8626887131560028s" repeatCount="indefinite"></animate>
  </rect>
</g><g transform="rotate(27.692307692307693 50 50)">
  <rect x="47.5" y="27" rx="2.5" ry="2.5" width="5" height="10" fill="#689cc5">
    <animate attributeName="opacity" values="1;0" keyTimes="0;1" dur="0.9345794392523364s" begin="-0.7907979870596693s" repeatCount="indefinite"></animate>
  </rect>
</g><g transform="rotate(55.38461538461539 50 50)">
  <rect x="47.5" y="27" rx="2.5" ry="2.5" width="5" height="10" fill="#5e6fa3">
    <animate attributeName="opacity" values="1;0" keyTimes="0;1" dur="0.9345794392523364s" begin="-0.7189072609633357s" repeatCount="indefinite"></animate>
  </rect>
</g><g transform="rotate(83.07692307692308 50 50)">
  <rect x="47.5" y="27" rx="2.5" ry="2.5" width="5" height="10" fill="#3b4368">
    <animate attributeName="opacity" values="1;0" keyTimes="0;1" dur="0.9345794392523364s" begin="-0.6470165348670022s" repeatCount="indefinite"></animate>
  </rect>
</g><g transform="rotate(110.76923076923077 50 50)">
  <rect x="47.5" y="27" rx="2.5" ry="2.5" width="5" height="10" fill="#191d3a">
    <animate attributeName="opacity" values="1;0" keyTimes="0;1" dur="0.9345794392523364s" begin="-0.5751258087706685s" repeatCount="indefinite"></animate>
  </rect>
</g><g transform="rotate(138.46153846153845 50 50)">
  <rect x="47.5" y="27" rx="2.5" ry="2.5" width="5" height="10" fill="#d9dbee">
    <animate attributeName="opacity" values="1;0" keyTimes="0;1" dur="0.9345794392523364s" begin="-0.503235082674335s" repeatCount="indefinite"></animate>
  </rect>
</g><g transform="rotate(166.15384615384616 50 50)">
  <rect x="47.5" y="27" rx="2.5" ry="2.5" width="5" height="10" fill="#b3b7e2">
    <animate attributeName="opacity" values="1;0" keyTimes="0;1" dur="0.9345794392523364s" begin="-0.4313443565780014s" repeatCount="indefinite"></animate>
  </rect>
</g><g transform="rotate(193.84615384615384 50 50)">
  <rect x="47.5" y="27" rx="2.5" ry="2.5" width="5" height="10" fill="#93dbe9">
    <animate attributeName="opacity" values="1;0" keyTimes="0;1" dur="0.9345794392523364s" begin="-0.35945363048166784s" repeatCount="indefinite"></animate>
  </rect>
</g><g transform="rotate(221.53846153846155 50 50)">
  <rect x="47.5" y="27" rx="2.5" ry="2.5" width="5" height="10" fill="#689cc5">
    <animate attributeName="opacity" values="1;0" keyTimes="0;1" dur="0.9345794392523364s" begin="-0.2875629043853343s" repeatCount="indefinite"></animate>
  </rect>
</g><g transform="rotate(249.23076923076923 50 50)">
  <rect x="47.5" y="27" rx="2.5" ry="2.5" width="5" height="10" fill="#5e6fa3">
    <animate attributeName="opacity" values="1;0" keyTimes="0;1" dur="0.9345794392523364s" begin="-0.2156721782890007s" repeatCount="indefinite"></animate>
  </rect>
</g><g transform="rotate(276.9230769230769 50 50)">
  <rect x="47.5" y="27" rx="2.5" ry="2.5" width="5" height="10" fill="#3b4368">
    <animate attributeName="opacity" values="1;0" keyTimes="0;1" dur="0.9345794392523364s" begin="-0.14378145219266714s" repeatCount="indefinite"></animate>
  </rect>
</g><g transform="rotate(304.61538461538464 50 50)">
  <rect x="47.5" y="27" rx="2.5" ry="2.5" width="5" height="10" fill="#191d3a">
    <animate attributeName="opacity" values="1;0" keyTimes="0;1" dur="0.9345794392523364s" begin="-0.07189072609633357s" repeatCount="indefinite"></animate>
  </rect>
</g><g transform="rotate(332.3076923076923 50 50)">
  <rect x="47.5" y="27" rx="2.5" ry="2.5" width="5" height="10" fill="#d9dbee">
    <animate attributeName="opacity" values="1;0" keyTimes="0;1" dur="0.9345794392523364s" begin="0s" repeatCount="indefinite"></animate>
  </rect>
</g>
<!-- [ldio] generated by https://loading.io/ --></svg>